<?xml version="1.0" standalone="no"?>
<!DOCTYPE svg PUBLIC "-//W3C//DTD SVG 20010904//EN"
 "http://www.w3.org/TR/2001/REC-SVG-20010904/DTD/svg10.dtd">
<svg version="1.0" xmlns="http://www.w3.org/2000/svg"
 width="149.000000pt" height="149.000000pt" viewBox="0 0 149.000000 149.000000"
 preserveAspectRatio="xMidYMid meet">
<metadata>
Created by potrace 1.11, written by Peter Selinger 2001-2013
</metadata>
<g transform="translate(0.000000,149.000000) scale(0.100000,-0.100000)"
fill="#000000" stroke="none">
<path d="M370 1265 c-139 -39 -235 -142 -276 -298 -17 -63 -18 -226 -3 -299
27 -129 99 -227 202 -274 55 -25 73 -29 162 -29 118 0 176 17 250 73 97 73
158 199 171 349 18 220 -71 405 -222 463 -77 29 -208 36 -284 15z m190 -85
c80 -41 120 -153 120 -341 0 -192 -35 -311 -107 -367 -31 -23 -46 -27 -99 -27
-70 0 -102 17 -142 75 -44 66 -57 133 -57 300 0 174 13 237 63 306 53 72 143
94 222 54z"/>
<path d="M962 1233 c3 -37 4 -38 56 -47 l52 -9 0 -352 c0 -369 -5 -431 -43
-505 -21 -40 -85 -101 -118 -112 -9 -3 -7 -13 9 -36 l22 -31 53 15 c107 31
207 124 238 222 8 25 14 162 16 419 l5 383 49 6 49 7 0 38 0 39 -196 0 -195 0
3 -37z"/>
</g>
</svg>
